<?xml version="1.0" encoding="utf-8"?>
<!-- Generator: Adobe Illustrator 16.0.0, SVG Export Plug-In . SVG Version: 6.00 Build 0)  -->
<!DOCTYPE svg PUBLIC "-//W3C//DTD SVG 1.0//EN" "http://www.w3.org/TR/2001/REC-SVG-20010904/DTD/svg10.dtd">
<svg version="1.0" id="Layer_1" xmlns="http://www.w3.org/2000/svg" xmlns:xlink="http://www.w3.org/1999/xlink" x="0px" y="0px"
	 width="512px" height="512px" viewBox="0 0 512 512" enable-background="new 0 0 512 512" xml:space="preserve">
<g>
	<defs>
		<path id="SVGID_1_" d="M512,256c0,141.383-114.615,256-256,256C114.619,512,0,397.383,0,256S114.619,0,256,0
			C397.385,0,512,114.617,512,256z"/>
	</defs>
	<use xlink:href="#SVGID_1_"  overflow="visible" fill="#5BC0DE"/>
		<g>
			<g id="sun_2_">
				<g>
					<path fill="#E8E9EB" d="M366.012,256c0,60.754-49.255,110.002-110.012,110.002c-60.76,0-110.008-49.248-110.008-110.002
						c0-60.761,49.248-110.006,110.008-110.006C316.757,145.994,366.012,195.239,366.012,256z"/>
					<path fill="#FDD835" d="M357.148,256c0,55.867-45.279,101.154-101.148,101.154c-55.874,0-101.152-45.287-101.152-101.154
						c0-55.863,45.279-101.158,101.152-101.158C311.869,154.842,357.148,200.137,357.148,256z"/>
				</g>
				<g>
					<g>
						<polygon fill="#FDD835" points="283.023,139.118 306.961,85.333 300.019,143.796 						"/>
						<polygon fill="#FDD835" points="336.027,163.519 383.407,128.587 348.487,175.975 						"/>
						<polygon fill="#FDD835" points="368.209,211.978 426.668,205.042 372.884,228.973 						"/>
						<polygon fill="#FDD835" points="372.884,283.027 426.668,306.954 368.209,300.02 						"/>
						<polygon fill="#FDD835" points="348.487,336.018 383.407,383.412 336.027,348.48 						"/>
						<polygon fill="#FDD835" points="300.019,368.207 306.961,426.662 283.023,372.878 						"/>
						<polygon fill="#FDD835" points="228.97,372.878 205.036,426.662 211.981,368.207 						"/>
						<polygon fill="#FDD835" points="175.976,348.48 128.593,383.412 163.517,336.018 						"/>
						<polygon fill="#FDD835" points="143.791,300.02 85.336,306.954 139.124,283.027 						"/>
						<polygon fill="#FDD835" points="139.117,228.973 85.336,205.042 143.791,211.978 						"/>
						<polygon fill="#FDD835" points="163.517,175.975 128.593,128.587 175.976,163.519 						"/>
						<polygon fill="#FDD835" points="211.981,143.796 205.036,85.333 228.97,139.118 						"/>
					</g>
					<g>
						<polygon fill="#FDD835" points="249.83,129.695 256,88.952 262.166,129.695 						"/>
						<polygon fill="#FDD835" points="317.073,142.252 342.996,110.211 327.717,148.486 						"/>
						<polygon fill="#FDD835" points="363.513,184.287 401.786,169.01 369.742,194.929 						"/>
						<polygon fill="#FDD835" points="382.299,249.833 423.042,256 382.299,262.166 						"/>
						<polygon fill="#FDD835" points="369.742,317.07 401.786,342.986 363.513,327.717 						"/>
						<polygon fill="#FDD835" points="327.717,363.511 342.996,401.785 317.073,369.748 						"/>
						<polygon fill="#FDD835" points="262.166,382.305 256,423.045 249.83,382.305 						"/>
						<polygon fill="#FDD835" points="194.926,369.748 169.016,401.785 184.284,363.511 						"/>
						<polygon fill="#FDD835" points="148.479,327.717 110.214,342.986 142.25,317.07 						"/>
						<polygon fill="#FDD835" points="129.697,262.166 88.954,256 129.697,249.833 						"/>
						<polygon fill="#FDD835" points="142.25,194.929 110.214,169.01 148.479,184.287 						"/>
						<polygon fill="#FDD835" points="184.284,148.486 169.016,110.211 194.926,142.252 						"/>
					</g>
				</g>
			</g>
			<path id="cloud_9_" fill="#FFFFFF" d="M243.227,300.373c1.544-3.719,2.402-7.793,2.402-12.071
				c0-17.399-14.104-31.507-31.506-31.507c-1.351,0-2.671,0.112-3.98,0.28c-6.204-12.747-19.245-21.554-34.375-21.554
				c-18.346,0-33.656,12.915-37.382,30.142c-2.425-0.698-4.98-1.09-7.625-1.09c-15.254,0-27.624,12.367-27.624,27.617
				c0,2.85,0.437,5.595,1.235,8.184H243.227z"/>
			<path id="cloud_8_" fill="#FFFFFF" d="M438.389,348.906c0.679-2.343,1.06-4.809,1.06-7.367c0-14.139-11.095-25.658-25.046-26.4
				c0.012-0.197,0.06-0.393,0.06-0.598c0-7.341-5.953-13.295-13.295-13.295c-1.962,0-3.805,0.451-5.479,1.213
				c-5.977-11.785-18.179-19.876-32.294-19.876c-16.675,0-30.693,11.295-34.901,26.64c-0.69-0.045-1.384-0.102-2.089-0.102
				c-16.265,0-29.444,13.18-29.444,29.441c0,3.648,0.69,7.117,1.902,10.344H438.389z"/>
		</g>
</g>
</svg>
